#!OML:ASF F:\VICON\USERDATA\INSTALL\rory3\rory3.ASF
:FULLY-SPECIFIED
:DEGREES
292
root -8.8935 17.9897 9.28009 -20.4614 -79.1317 18.3508
lowerback 9.86197 0.131167 -2.89778
upperback 1.06005 -0.132633 0.829346
thorax -4.41954 -0.0208426 2.51612
lowerneck -19.611 -7.37806 -12.7975
upperneck 28.3153 -10.0996 10.0558
head 14.1819 -4.62642 4.31505
rclavicle -9.0944e-015 -7.95139e-016
rhumerus -37.6728 -22.352 -74.8133
rradius 23.6222
rwrist 13.2918
rhand -15.3053 6.06374
rfingers 7.12502
rthumb 10.8703 -23.6349
lclavicle -9.0944e-015 -7.95139e-016
lhumerus -31.9027 1.59761 82.8296
lradius 37.2497
lwrist -0.649739
lhand -20.3498 25.6861
lfingers 7.12502
lthumb 6.00208 55.5811
rfemur -14.667 -5.78493 24.3863
rtibia 24.8775
rfoot -6.03407 -0.35626
rtoes 20.2237
lfemur 8.10479 -1.87959 -22.77
ltibia 36.8717
lfoot 22.2102 -14.1254
ltoes -4.65298
293
root -9.03581 18.0017 9.29293 -19.3073 -79.4387 17.0955
lowerback 10.0792 0.172121 -2.61817
upperback 0.938792 -0.0499897 0.893413
thorax -4.67308 0.02147 2.4157
lowerneck -19.5002 -7.32329 -12.7144
upperneck 28.3516 -10.0647 10.0326
head 14.161 -4.61159 4.30135
rclavicle -2.98177e-015 1.11319e-014
rhumerus -37.6788 -21.6744 -75.1833
rradius 23.8933
rwrist 13.1046
rhand -15.3379 6.02351
rfingers 7.12502
rthumb 10.8389 -23.6768
lclavicle -2.98177e-015 1.11319e-014
lhumerus -32.3832 1.06082 83.148
lradius 37.2059
lwrist -0.870629
lhand -20.0981 25.6643
lfingers 7.12502
lthumb 6.24514 55.5523
rfemur -13.7076 -5.77784 24.76
rtibia 24.175
rfoot -6.19145 -0.218559
rtoes 20.4736
lfemur 6.8215 -1.67972 -22.1372
ltibia 39.1704
lfoot 24.2764 -14.9805
ltoes -1.09213
294
root -9.17503 18.0214 9.3015 -17.749 -79.7627 15.4017
lowerback 10.3106 0.223837 -2.31378
upperback 0.877612 0.0522658 0.992169
thorax -4.87238 0.0703399 2.33402
lowerneck -19.4856 -7.3199 -12.7218
upperneck 28.4266 -10.0954 10.0954
head 14.1999 -4.62067 4.32505
rclavicle 7.10655e-015 -2.38542e-015
rhumerus -37.5245 -21.1262 -75.51
rradius 24.1583
rwrist 12.8579
rhand -15.1966 6.11105
rfingers 7.12502
rthumb 10.9751 -23.5821
lclavicle 7.10655e-015 -2.38542e-015
lhumerus -32.7115 0.577974 83.5004
lradius 37.1273
lwrist -1.26446
lhand -19.7208 25.8752
lfingers 7.12502
lthumb 6.60933 55.7521
rfemur -12.7803 -5.29635 25.1925
rtibia 23.6301
rfoot -6.40646 -0.518682
rtoes 21.0899
lfemur 5.59819 -1.63262 -21.471
ltibia 41.3834
lfoot 26.4127 -15.3682
ltoes 3.39554
295
root -9.31349 18.0275 9.31365 -16.2636 -80.1243 13.803
lowerback 10.3904 0.319583 -1.92433
upperback 0.88712 0.22389 1.02827
thorax -4.91531 0.147339 2.12724
lowerneck -19.4687 -7.36258 -12.6841
upperneck 28.4055 -10.1952 10.1582
head 14.2041 -4.65242 4.32414
rclavicle 1.42628e-014 2.38542e-015
rhumerus -37.2891 -20.9262 -75.7799
rradius 24.4014
rwrist 12.7438
rhand -15.0916 6.35308
rfingers 7.12502
rthumb 11.0764 -23.3346
lclavicle 1.42628e-014 2.38542e-015
lhumerus -32.9033 -0.13661 83.8462
lradius 37.0187
lwrist -1.7147
lhand -19.5181 25.9133
lfingers 7.12502
lthumb 6.80504 55.7839
rfemur -11.9212 -5.017 25.621
rtibia 23.1547
rfoot -6.61278 -0.61529
rtoes 21.2187
lfemur 4.395 -1.47656 -20.8283
ltibia 43.5294
lfoot 28.1438 -15.6633
ltoes 7.07761
296
root -9.4486 18.0289 9.32918 -14.809 -80.5361 12.222
lowerback 10.4864 0.398006 -1.57807
upperback 0.910289 0.36859 1.08742
thorax -4.95022 0.211595 1.97254
lowerneck -19.487 -7.33273 -12.5512
upperneck 28.3724 -10.1713 10.1057
head 14.1772 -4.63319 4.28316
rclavicle -3.23025e-015 5.96354e-015
rhumerus -36.9781 -20.4881 -76.1773
rradius 24.631
rwrist 12.6742
rhand -15.1315 6.50374
rfingers 7.12502
rthumb 11.0379 -23.186
lclavicle -3.23025e-015 5.96354e-015
lhumerus -33.1289 -0.846955 84.156
lradius 36.9828
lwrist -2.12981
lhand -18.9979 25.7264
lfingers 7.12502
lthumb 7.30718 55.5803
rfemur -11.0757 -4.88269 26.0333
rtibia 22.7227
rfoot -6.89265 -0.526223
rtoes 20.7238
lfemur 3.21514 -1.24795 -20.2145
ltibia 45.6187
lfoot 29.1993 -15.8548
ltoes 9.52386
297
root -9.57752 18.0323 9.34233 -12.9734 -80.9117 10.2962
lowerback 10.6332 0.462418 -1.2643
upperback 0.902766 0.493674 1.19117
thorax -5.04412 0.267989 1.88535
lowerneck -19.4182 -7.32827 -12.6253
upperneck 28.2723 -10.175 10.2222
head 14.1326 -4.6297 4.34173
rclavicle -1.22501e-014 -1.19271e-014
rhumerus -36.579 -19.5473 -76.731
rradius 24.8733
rwrist 12.2057
rhand -15.33 6.45529
rfingers 7.12502
rthumb 10.8464 -23.2446
lclavicle -1.22501e-014 -1.19271e-014
lhumerus -33.3626 -1.25846 84.5039
lradius 36.8875
lwrist -2.77166
lhand -18.7518 25.2681
lfingers 7.12502
lthumb 7.54469 55.1135
rfemur -10.3655 -4.62315 26.4818
rtibia 22.3827
rfoot -7.18287 -0.586079
rtoes 20.044
lfemur 1.93915 -1.01858 -19.5729
ltibia 47.6798
lfoot 28.9804 -16.2821
ltoes 9.11231
298
root -9.71173 18.0319 9.35956 -11.9471 -81.3712 9.07863
lowerback 10.7659 0.617096 -0.939762
upperback 0.962193 0.735388 1.21018
thorax -5.06219 0.379073 1.68549
lowerneck -19.3441 -7.41691 -12.6986
upperneck 28.1662 -10.3228 10.3522
head 14.1074 -4.68648 4.3764
rclavicle 2.03257e-014 -1.11319e-014
rhumerus -36.1842 -18.6961 -77.2477
rradius 25.105
rwrist 11.527
rhand -15.4816 6.55303
rfingers 7.12502
rthumb 10.7002 -23.1545
lclavicle 2.03257e-014 -1.11319e-014
lhumerus -33.4914 -1.53223 84.8292
lradius 36.7181
lwrist -3.46923
lhand -18.8729 24.7552
lfingers 7.12502
lthumb 7.42787 54.6048
rfemur -9.55501 -4.41041 26.7482
rtibia 22.0845
rfoot -7.43215 -0.39591
rtoes 20.3379
lfemur 0.845302 -0.708358 -19.135
ltibia 49.6401
lfoot 27.6678 -16.388
ltoes 6.95211
299
root -9.82938 18.0316 9.36135 -10.5862 -81.5425 7.71514
lowerback 10.9568 0.666036 -0.784176
upperback 0.906882 0.820796 1.24716
thorax -5.22838 0.419379 1.62224
lowerneck -19.2673 -7.43991 -12.5633
upperneck 28.0642 -10.3722 10.2716
head 14.0391 -4.70478 4.30821
rclavicle -2.10215e-014 3.97569e-015
rhumerus -35.875 -18.6854 -77.3144
rradius 25.2315
rwrist 11.8539
rhand -15.1994 6.86674
rfingers 7.12502
rthumb 10.9724 -22.8265
lclavicle -2.10215e-014 3.97569e-015
lhumerus -33.7301 -1.84868 85.1043
lradius 36.7438
lwrist -3.97359
lhand -18.9944 24.8449
lfingers 7.12502
lthumb 7.31051 54.6986
rfemur -8.95905 -4.25585 27.0362
rtibia 21.7698
rfoot -7.7 -0.3578
rtoes 21.2624
lfemur -0.526405 -0.473479 -18.6032
ltibia 51.5265
lfoot 25.7451 -16.3837
ltoes 4.84311
300
root -9.95822 18.0353 9.37961 -9.2503 -81.8927 6.31543
lowerback 11.0065 0.719576 -0.437628
upperback 0.925352 0.932691 1.24238
thorax -5.23488 0.466065 1.40412
lowerneck -19.2408 -7.40966 -12.3862
upperneck 28.0079 -10.348 10.1676
head 13.9859 -4.68871 4.23888
rclavicle 7.52897e-015 -3.97569e-016
rhumerus -35.5212 -18.9625 -77.3235
rradius 25.3253
rwrist 12.4622
rhand -14.8708 7.17451
rfingers 7.12502
rthumb 11.2894 -22.5017
lclavicle 7.52897e-015 -3.97569e-016
lhumerus -33.9604 -2.1073 85.3093
lradius 36.7231
lwrist -4.42866
lhand -18.7358 24.9888
lfingers 7.12502
lthumb 7.56019 54.8337
rfemur -8.26282 -4.33779 27.2741
rtibia 21.4847
rfoot -8.03402 0.0949824
rtoes 22.0125
lfemur -1.67216 -0.0952976 -18.1293
ltibia 53.2426
lfoot 23.3654 -16.1651
ltoes 4.13041
301
root -10.0872 18.0407 9.40243 -7.57363 -82.2047 4.59935
lowerback 11.0123 0.763576 0.00975457
upperback 0.937488 1.0439 1.22443
thorax -5.21999 0.510135 1.11584
lowerneck -19.2007 -7.41317 -12.3257
upperneck 27.9705 -10.3854 10.1956
head 13.9646 -4.69655 4.2323
rclavicle 1.87106e-014 6.75868e-015
rhumerus -35.1182 -18.5289 -77.6826
rradius 25.5246
rwrist 12.2332
rhand -15.0111 7.20803
rfingers 7.12502
rthumb 11.1541 -22.4755
lclavicle 1.87106e-014 6.75868e-015
lhumerus -34.131 -2.24123 85.4413
lradius 36.5798
lwrist -4.9117
lhand -18.3329 24.837
lfingers 7.12502
lthumb 7.94901 54.6676
rfemur -7.60403 -4.44844 27.522
rtibia 21.1983
rfoot -8.30391 0.444976
rtoes 21.5847
lfemur -2.86022 0.186095 -17.7011
ltibia 54.8141
lfoot 20.6953 -15.7943
ltoes 3.27884
302
root -10.2155 18.0438 9.41927 -7.02952 -82.5476 4.01748
lowerback 11.0496 0.838004 0.136621
upperback 0.930863 1.15834 1.22381
thorax -5.24759 0.563525 1.02561
lowerneck -19.0688 -7.37785 -12.2583
upperneck 27.8445 -10.3391 10.1469
head 13.8672 -4.67913 4.20907
rclavicle 1.55301e-014 -3.57812e-015
rhumerus -34.7648 -17.9625 -78.0307
rradius 25.7766
rwrist 11.779
rhand -15.1689 7.26619
rfingers 7.12502
rthumb 11.0018 -22.4255
lclavicle 1.55301e-014 -3.57812e-015
lhumerus -34.3918 -2.18164 85.5907
lradius 36.5002
lwrist -5.1225
lhand -17.904 24.7226
lfingers 7.12502
lthumb 8.36298 54.537
rfemur -6.92233 -4.29507 27.6192
rtibia 20.9046
rfoot -8.49134 0.577544
rtoes 21.2408
lfemur -3.98101 0.452687 -17.4751
ltibia 56.174
lfoot 18.0485 -15.2612
ltoes 1.95175
303
root -10.3415 18.0445 9.4334 -6.84903 -82.9191 3.83789
lowerback 11.0585 0.930923 0.125117
upperback 0.921328 1.28203 1.25217
thorax -5.26573 0.624964 1.0425
lowerneck -19.0523 -7.35414 -12.3176
upperneck 27.8634 -10.2894 10.1493
head 13.8686 -4.66469 4.23087
rclavicle 2.05742e-014 1.59028e-015
rhumerus -34.3526 -17.7629 -78.1441
rradius 25.8645
rwrist 11.8607
rhand -15.1266 7.29039
rfingers 7.12502
rthumb 11.0426 -22.3991
lclavicle 2.05742e-014 1.59028e-015
lhumerus -34.615 -2.00605 85.8198
lradius 36.3151
lwrist -5.13998
lhand -17.2233 24.6168
lfingers 7.12502
lthumb 9.01983 54.404
rfemur -6.29195 -4.26037 27.661
rtibia 20.6189
rfoot -8.75746 0.874737
rtoes 21.3243
lfemur -5.10945 0.751023 -17.2823
ltibia 57.3692
lfoot 15.6405 -14.6455
ltoes 0.435705
304
root -10.4661 18.0439 9.45127 -5.87349 -83.2532 2.83612
lowerback 11.0964 0.996792 0.282322
upperback 0.917017 1.38993 1.27435
thorax -5.29026 0.674477 0.959842
lowerneck -19.0838 -7.36553 -12.4779
upperneck 27.9773 -10.303 10.2586
head 13.9448 -4.67505 4.30304
rclavicle 6.80837e-015 1.35174e-014
rhumerus -33.8928 -17.4604 -78.3791
rradius 25.9465
rwrist 11.6945
rhand -15.3829 6.94136
rfingers 7.12502
rthumb 10.7954 -22.7612
lclavicle 6.80837e-015 1.35174e-014
lhumerus -34.7906 -1.55601 85.8764
lradius 36.0656
lwrist -5.64788
lhand -17.2622 24.4166
lfingers 7.12502
lthumb 8.98229 54.2054
rfemur -5.70053 -4.37568 27.8019
rtibia 20.4002
rfoot -9.11257 1.13302
rtoes 20.1127
lfemur -6.20378 0.931005 -17.0331
ltibia 58.361
lfoot 13.4674 -13.8755
ltoes -1.122
305
root -10.5866 18.0386 9.4648 -4.64941 -83.5874 1.68245
lowerback 11.0184 1.08516 0.350223
upperback 0.91874 1.51756 1.32886
thorax -5.24669 0.736307 0.960118
lowerneck -19.189 -7.38444 -12.5512
upperneck 28.121 -10.3006 10.2266
head 14.0318 -4.68354 4.30494
rclavicle -2.90723e-015 -1.98785e-015
rhumerus -33.3666 -17.216 -78.6032
rradius 26.0546
rwrist 11.4051
rhand -15.6982 6.63882
rfingers 7.12502
rthumb 10.4913 -23.0794
lclavicle -2.90723e-015 -1.98785e-015
lhumerus -34.879 -1.0411 85.915
lradius 35.8368
lwrist -5.92081
lhand -17.9914 24.4811
lfingers 7.12502
lthumb 8.27861 54.2989
rfemur -5.20806 -4.07353 28.0035
rtibia 20.2084
rfoot -9.36688 1.04109
rtoes 18.5497
lfemur -7.37102 1.04633 -16.7838
ltibia 59.1827
lfoot 11.4856 -12.9554
ltoes -2.85626
